<svg xmlns="http://www.w3.org/2000/svg" xmlns:xlink="http://www.w3.org/1999/xlink" width="500" zoomAndPan="magnify" viewBox="0 0 375 374.999991" height="500" preserveAspectRatio="xMidYMid meet" version="1.0"><defs><g/><clipPath id="eaba5d039d"><path d="M 167.257812 85 L 256.507812 85 L 256.507812 257.949219 L 167.257812 257.949219 Z M 167.257812 85 " clip-rule="nonzero"/></clipPath></defs><rect x="-37.5" width="450" fill="#ffffff" y="-37.499999" height="449.999989" fill-opacity="1"/><rect x="-37.5" width="450" fill="#ffffff" y="-37.499999" height="449.999989" fill-opacity="1"/><g clip-path="url(#eaba5d039d)"><path fill="#9ec6a3" d="M 196.726562 149.742188 C 196.726562 137.976562 196.710938 126.207031 196.734375 114.441406 C 196.75 107.984375 197.523438 101.597656 199.722656 95.519531 C 201.601562 90.324219 204.484375 85.316406 210.609375 85.039062 C 216.828125 84.761719 219.894531 89.679688 222.132812 94.71875 C 224.894531 100.933594 225.605469 107.589844 225.609375 114.320312 C 225.632812 132.503906 225.542969 150.6875 225.679688 168.871094 C 225.695312 171.179688 224.09375 175.078125 228.097656 175.339844 C 231.453125 175.5625 233.003906 172.398438 233.351562 169.285156 C 233.703125 166.105469 233.65625 162.882812 233.742188 159.679688 C 234.097656 146.328125 232.886719 132.941406 234.746094 119.621094 C 235.308594 115.582031 236.316406 111.730469 238.523438 108.308594 C 242.5 102.136719 247.742188 102.234375 251.742188 108.457031 C 253.214844 110.742188 254.078125 113.304688 254.511719 115.933594 C 255.167969 119.882812 255.898438 123.878906 255.945312 127.859375 C 256.113281 141.226562 256.214844 154.605469 255.925781 167.96875 C 255.546875 185.429688 249.433594 192.945312 232.488281 197.679688 C 226.097656 199.464844 225.707031 199.769531 225.644531 206.492188 C 225.527344 219.863281 225.617188 233.234375 225.578125 246.601562 C 225.570312 249.003906 225.484375 251.417969 225.230469 253.800781 C 224.933594 256.570312 223.304688 258.160156 220.457031 258.183594 C 214.308594 258.230469 208.160156 258.210938 202.011719 258.207031 C 198.707031 258.203125 197.183594 256.285156 196.925781 253.226562 C 196.742188 251.101562 196.726562 248.957031 196.714844 246.816406 C 196.6875 239.332031 196.652344 231.84375 196.699219 224.355469 C 196.722656 220.617188 195.40625 218.367188 191.3125 217.859375 C 188.433594 217.503906 185.542969 216.621094 182.84375 215.519531 C 173.570312 211.742188 168.121094 204.785156 167.703125 194.753906 C 167.257812 184.074219 167.515625 173.363281 167.605469 162.667969 C 167.621094 160.851562 168.070312 158.929688 168.769531 157.238281 C 170.574219 152.878906 175.34375 150.003906 179.589844 150.421875 C 183.769531 150.835938 187.402344 153.914062 188.542969 158.503906 C 189.113281 160.800781 189.160156 163.265625 189.1875 165.65625 C 189.269531 172.339844 189.203125 179.027344 189.214844 185.710938 C 189.222656 188.394531 189.246094 191.09375 190.792969 193.453125 C 191.695312 194.835938 192.824219 196.09375 194.679688 195.507812 C 196.152344 195.042969 196.460938 193.605469 196.539062 192.253906 C 196.664062 190.121094 196.710938 187.980469 196.710938 185.839844 C 196.726562 173.808594 196.71875 161.773438 196.726562 149.742188 Z M 196.726562 149.742188 " fill-opacity="1" fill-rule="nonzero"/></g><g fill="#e06b39" fill-opacity="1"><g transform="translate(50.727405, 258.220207)"><g><path d="M 1.6875 -21.046875 C 1.6875 -25.085938 2.566406 -28.734375 4.328125 -31.984375 C 6.097656 -35.242188 8.566406 -37.828125 11.734375 -39.734375 C 14.910156 -41.640625 18.546875 -42.59375 22.640625 -42.59375 C 24.273438 -42.59375 25.539062 -42.507812 26.4375 -42.34375 C 27.332031 -42.175781 28.398438 -42.09375 29.640625 -42.09375 C 30.585938 -42.09375 31.484375 -42.175781 32.328125 -42.34375 C 33.171875 -42.507812 33.925781 -42.59375 34.59375 -42.59375 C 35.050781 -42.59375 35.445312 -42.507812 35.78125 -42.34375 C 36.113281 -42.175781 36.394531 -41.84375 36.625 -41.34375 C 37.570312 -38.976562 38.410156 -36.769531 39.140625 -34.71875 C 39.867188 -32.675781 40.25 -31.019531 40.28125 -29.75 C 40.3125 -28.488281 39.65625 -27.859375 38.3125 -27.859375 C 37.070312 -27.859375 36.03125 -28.347656 35.1875 -29.328125 C 34.34375 -30.316406 33.472656 -31.46875 32.578125 -32.78125 C 31.679688 -34.101562 30.597656 -35.253906 29.328125 -36.234375 C 28.066406 -37.222656 26.398438 -37.71875 24.328125 -37.71875 C 22.367188 -37.71875 20.769531 -36.929688 19.53125 -35.359375 C 18.289062 -33.785156 17.390625 -31.734375 16.828125 -29.203125 C 16.273438 -26.679688 16 -23.960938 16 -21.046875 C 16 -18.128906 16.273438 -15.378906 16.828125 -12.796875 C 17.390625 -10.210938 18.289062 -8.109375 19.53125 -6.484375 C 20.769531 -4.859375 22.425781 -4.046875 24.5 -4.046875 C 26.351562 -4.046875 27.742188 -4.492188 28.671875 -5.390625 C 29.597656 -6.285156 30.3125 -7.390625 30.8125 -8.703125 C 31.320312 -10.023438 31.785156 -11.347656 32.203125 -12.671875 C 32.617188 -13.992188 33.21875 -15.101562 34 -16 C 34.789062 -16.894531 35.945312 -17.34375 37.46875 -17.34375 C 39.207031 -17.34375 40.492188 -16.738281 41.328125 -15.53125 C 42.171875 -14.320312 42.476562 -12.832031 42.25 -11.0625 C 42.03125 -9.300781 41.203125 -7.535156 39.765625 -5.765625 C 38.335938 -3.992188 36.222656 -2.503906 33.421875 -1.296875 C 30.617188 -0.0976562 27.023438 0.5 22.640625 0.5 C 18.378906 0.5 14.675781 -0.453125 11.53125 -2.359375 C 8.382812 -4.265625 5.957031 -6.84375 4.25 -10.09375 C 2.539062 -13.351562 1.6875 -17.003906 1.6875 -21.046875 Z M 1.6875 -21.046875 "/></g></g></g><g fill="#e06b39" fill-opacity="1"><g transform="translate(94.589178, 258.220207)"><g><path d="M 0.421875 -1.59375 C 0.421875 -2.269531 0.628906 -2.773438 1.046875 -3.109375 C 1.472656 -3.453125 2.050781 -3.898438 2.78125 -4.453125 C 3.507812 -5.015625 4.320312 -5.914062 5.21875 -7.15625 C 5.726562 -7.882812 6.359375 -9.257812 7.109375 -11.28125 C 7.867188 -13.300781 8.695312 -15.65625 9.59375 -18.34375 C 10.488281 -21.039062 11.398438 -23.820312 12.328125 -26.6875 C 13.253906 -29.550781 14.113281 -32.1875 14.90625 -34.59375 C 15.351562 -35.882812 15.519531 -36.828125 15.40625 -37.421875 C 15.289062 -38.015625 15.050781 -38.460938 14.6875 -38.765625 C 14.320312 -39.078125 13.984375 -39.359375 13.671875 -39.609375 C 13.367188 -39.859375 13.21875 -40.265625 13.21875 -40.828125 C 13.21875 -41.617188 13.566406 -42.109375 14.265625 -42.296875 C 14.972656 -42.492188 15.773438 -42.59375 16.671875 -42.59375 C 17.734375 -42.59375 18.546875 -42.507812 19.109375 -42.34375 C 19.671875 -42.175781 20.679688 -42.09375 22.140625 -42.09375 C 23.765625 -42.09375 25.023438 -42.175781 25.921875 -42.34375 C 26.828125 -42.507812 27.703125 -42.59375 28.546875 -42.59375 C 29.160156 -42.59375 29.675781 -42.507812 30.09375 -42.34375 C 30.519531 -42.175781 30.925781 -41.613281 31.3125 -40.65625 C 31.820312 -39.476562 32.46875 -37.640625 33.25 -35.140625 C 34.039062 -32.648438 34.894531 -29.890625 35.8125 -26.859375 C 36.738281 -23.828125 37.679688 -20.835938 38.640625 -17.890625 C 39.597656 -14.941406 40.492188 -12.375 41.328125 -10.1875 C 42.171875 -8 42.875 -6.539062 43.4375 -5.8125 C 44.394531 -4.632812 45.15625 -3.847656 45.71875 -3.453125 C 46.28125 -3.054688 46.5625 -2.4375 46.5625 -1.59375 C 46.5625 -0.757812 46.28125 -0.203125 45.71875 0.078125 C 45.15625 0.359375 44.394531 0.5 43.4375 0.5 C 42.375 0.5 41.097656 0.414062 39.609375 0.25 C 38.117188 0.0820312 36.503906 0 34.765625 0 C 33.921875 0 32.894531 0.0820312 31.6875 0.25 C 30.488281 0.414062 29.328125 0.5 28.203125 0.5 C 27.191406 0.5 26.332031 0.359375 25.625 0.078125 C 24.925781 -0.203125 24.578125 -0.757812 24.578125 -1.59375 C 24.578125 -2.4375 24.757812 -3.039062 25.125 -3.40625 C 25.488281 -3.769531 25.835938 -4.289062 26.171875 -4.96875 C 26.515625 -5.644531 26.6875 -6.796875 26.6875 -8.421875 C 26.6875 -9.710938 26.375 -10.722656 25.75 -11.453125 C 25.132812 -12.179688 24.351562 -12.546875 23.40625 -12.546875 L 15.65625 -12.546875 C 14.707031 -12.546875 13.921875 -12.179688 13.296875 -11.453125 C 12.679688 -10.722656 12.375 -9.710938 12.375 -8.421875 C 12.375 -6.796875 12.597656 -5.613281 13.046875 -4.875 C 13.492188 -4.144531 13.941406 -3.582031 14.390625 -3.1875 C 14.835938 -2.800781 15.0625 -2.269531 15.0625 -1.59375 C 15.0625 -0.8125 14.753906 -0.269531 14.140625 0.03125 C 13.523438 0.34375 12.820312 0.5 12.03125 0.5 C 11.082031 0.5 10.34375 0.414062 9.8125 0.25 C 9.28125 0.0820312 8.59375 0 7.75 0 C 6.90625 0 6.21875 0.0820312 5.6875 0.25 C 5.15625 0.414062 4.410156 0.5 3.453125 0.5 C 2.660156 0.5 1.957031 0.34375 1.34375 0.03125 C 0.726562 -0.269531 0.421875 -0.8125 0.421875 -1.59375 Z M 14.734375 -18.609375 C 14.285156 -17.316406 14.707031 -16.671875 16 -16.671875 L 22.8125 -16.671875 C 24.101562 -16.671875 24.523438 -17.316406 24.078125 -18.609375 C 23.347656 -20.734375 22.644531 -22.960938 21.96875 -25.296875 C 21.300781 -27.628906 20.742188 -29.582031 20.296875 -31.15625 C 20.066406 -31.882812 19.8125 -32.25 19.53125 -32.25 C 19.300781 -32.25 19.050781 -31.910156 18.78125 -31.234375 C 18.21875 -29.660156 17.597656 -27.691406 16.921875 -25.328125 C 16.242188 -22.972656 15.515625 -20.734375 14.734375 -18.609375 Z M 14.734375 -18.609375 "/></g></g></g><g fill="#e06b39" fill-opacity="1"><g transform="translate(142.239392, 258.220207)"><g><path d="M 1.6875 -21.046875 C 1.6875 -25.085938 2.566406 -28.734375 4.328125 -31.984375 C 6.097656 -35.242188 8.566406 -37.828125 11.734375 -39.734375 C 14.910156 -41.640625 18.546875 -42.59375 22.640625 -42.59375 C 24.273438 -42.59375 25.539062 -42.507812 26.4375 -42.34375 C 27.332031 -42.175781 28.398438 -42.09375 29.640625 -42.09375 C 30.585938 -42.09375 31.484375 -42.175781 32.328125 -42.34375 C 33.171875 -42.507812 33.925781 -42.59375 34.59375 -42.59375 C 35.050781 -42.59375 35.445312 -42.507812 35.78125 -42.34375 C 36.113281 -42.175781 36.394531 -41.84375 36.625 -41.34375 C 37.570312 -38.976562 38.410156 -36.769531 39.140625 -34.71875 C 39.867188 -32.675781 40.25 -31.019531 40.28125 -29.75 C 40.3125 -28.488281 39.65625 -27.859375 38.3125 -27.859375 C 37.070312 -27.859375 36.03125 -28.347656 35.1875 -29.328125 C 34.34375 -30.316406 33.472656 -31.46875 32.578125 -32.78125 C 31.679688 -34.101562 30.597656 -35.253906 29.328125 -36.234375 C 28.066406 -37.222656 26.398438 -37.71875 24.328125 -37.71875 C 22.367188 -37.71875 20.769531 -36.929688 19.53125 -35.359375 C 18.289062 -33.785156 17.390625 -31.734375 16.828125 -29.203125 C 16.273438 -26.679688 16 -23.960938 16 -21.046875 C 16 -18.128906 16.273438 -15.378906 16.828125 -12.796875 C 17.390625 -10.210938 18.289062 -8.109375 19.53125 -6.484375 C 20.769531 -4.859375 22.425781 -4.046875 24.5 -4.046875 C 26.351562 -4.046875 27.742188 -4.492188 28.671875 -5.390625 C 29.597656 -6.285156 30.3125 -7.390625 30.8125 -8.703125 C 31.320312 -10.023438 31.785156 -11.347656 32.203125 -12.671875 C 32.617188 -13.992188 33.21875 -15.101562 34 -16 C 34.789062 -16.894531 35.945312 -17.34375 37.46875 -17.34375 C 39.207031 -17.34375 40.492188 -16.738281 41.328125 -15.53125 C 42.171875 -14.320312 42.476562 -12.832031 42.25 -11.0625 C 42.03125 -9.300781 41.203125 -7.535156 39.765625 -5.765625 C 38.335938 -3.992188 36.222656 -2.503906 33.421875 -1.296875 C 30.617188 -0.0976562 27.023438 0.5 22.640625 0.5 C 18.378906 0.5 14.675781 -0.453125 11.53125 -2.359375 C 8.382812 -4.265625 5.957031 -6.84375 4.25 -10.09375 C 2.539062 -13.351562 1.6875 -17.003906 1.6875 -21.046875 Z M 1.6875 -21.046875 "/></g></g></g><g fill="#e06b39" fill-opacity="1"><g transform="translate(186.102396, 258.220207)"><g/></g></g><g fill="#e06b39" fill-opacity="1"><g transform="translate(199.404087, 258.220207)"><g/></g></g><g fill="#e06b39" fill-opacity="1"><g transform="translate(212.705779, 258.220207)"><g/></g></g><g fill="#e06b39" fill-opacity="1"><g transform="translate(226.007472, 258.220207)"><g/></g></g><g fill="#e06b39" fill-opacity="1"><g transform="translate(239.31724, 258.220207)"><g><path d="M 0.84375 -40.5 C 0.84375 -41.332031 1.164062 -41.890625 1.8125 -42.171875 C 2.457031 -42.453125 3.253906 -42.59375 4.203125 -42.59375 C 5.210938 -42.59375 6.289062 -42.507812 7.4375 -42.34375 C 8.59375 -42.175781 9.59375 -42.09375 10.4375 -42.09375 C 11.28125 -42.09375 12.273438 -42.175781 13.421875 -42.34375 C 14.578125 -42.507812 15.6875 -42.59375 16.75 -42.59375 C 17.707031 -42.59375 18.507812 -42.453125 19.15625 -42.171875 C 19.800781 -41.890625 20.125 -41.332031 20.125 -40.5 C 20.125 -39.875 19.984375 -39.40625 19.703125 -39.09375 C 19.421875 -38.789062 19.082031 -38.398438 18.6875 -37.921875 C 18.289062 -37.441406 17.953125 -36.710938 17.671875 -35.734375 C 17.398438 -34.753906 17.265625 -33.28125 17.265625 -31.3125 L 17.265625 -14.8125 C 17.265625 -13.414062 17.359375 -11.957031 17.546875 -10.4375 C 17.742188 -8.925781 18.207031 -7.632812 18.9375 -6.5625 C 19.664062 -5.5 20.789062 -4.96875 22.3125 -4.96875 C 23.882812 -4.96875 25.019531 -5.5 25.71875 -6.5625 C 26.414062 -7.632812 26.863281 -8.925781 27.0625 -10.4375 C 27.257812 -11.957031 27.359375 -13.414062 27.359375 -14.8125 L 27.359375 -31.3125 C 27.359375 -33.28125 27.21875 -34.769531 26.9375 -35.78125 C 26.65625 -36.789062 26.316406 -37.53125 25.921875 -38 C 25.535156 -38.476562 25.203125 -38.875 24.921875 -39.1875 C 24.640625 -39.5 24.5 -39.960938 24.5 -40.578125 C 24.5 -41.421875 24.820312 -41.984375 25.46875 -42.265625 C 26.113281 -42.546875 26.910156 -42.6875 27.859375 -42.6875 C 28.867188 -42.6875 29.945312 -42.597656 31.09375 -42.421875 C 32.25 -42.253906 33.25 -42.171875 34.09375 -42.171875 C 34.9375 -42.171875 35.929688 -42.253906 37.078125 -42.421875 C 38.234375 -42.597656 39.34375 -42.6875 40.40625 -42.6875 C 41.363281 -42.6875 42.164062 -42.546875 42.8125 -42.265625 C 43.457031 -41.984375 43.78125 -41.421875 43.78125 -40.578125 C 43.78125 -39.960938 43.640625 -39.5 43.359375 -39.1875 C 43.078125 -38.875 42.738281 -38.476562 42.34375 -38 C 41.945312 -37.53125 41.609375 -36.789062 41.328125 -35.78125 C 41.054688 -34.769531 40.921875 -33.28125 40.921875 -31.3125 L 40.921875 -16.5 C 40.921875 -10.550781 39.375 -6.226562 36.28125 -3.53125 C 33.195312 -0.84375 28.566406 0.5 22.390625 0.5 C 16.328125 0.5 11.695312 -0.832031 8.5 -3.5 C 5.300781 -6.164062 3.703125 -10.5 3.703125 -16.5 L 3.703125 -31.234375 C 3.703125 -33.203125 3.5625 -34.6875 3.28125 -35.6875 C 3 -36.695312 2.660156 -37.441406 2.265625 -37.921875 C 1.878906 -38.398438 1.546875 -38.789062 1.265625 -39.09375 C 0.984375 -39.40625 0.84375 -39.875 0.84375 -40.5 Z M 0.84375 -40.5 "/></g></g></g><g fill="#e06b39" fill-opacity="1"><g transform="translate(284.610212, 258.220207)"><g><path d="M 2.265625 -8.328125 C 2.265625 -10.066406 2.148438 -11.566406 1.921875 -12.828125 C 1.703125 -14.097656 1.632812 -15.097656 1.71875 -15.828125 C 1.8125 -16.554688 2.363281 -16.921875 3.375 -16.921875 C 4.039062 -16.921875 4.707031 -16.515625 5.375 -15.703125 C 6.050781 -14.890625 6.828125 -13.878906 7.703125 -12.671875 C 8.578125 -11.460938 9.613281 -10.253906 10.8125 -9.046875 C 12.019531 -7.835938 13.460938 -6.828125 15.140625 -6.015625 C 16.828125 -5.203125 18.820312 -4.796875 21.125 -4.796875 C 22.476562 -4.796875 23.585938 -5.035156 24.453125 -5.515625 C 25.328125 -5.992188 25.765625 -6.847656 25.765625 -8.078125 C 25.765625 -9.203125 25.1875 -10.15625 24.03125 -10.9375 C 22.882812 -11.726562 21.410156 -12.5 19.609375 -13.25 C 17.816406 -14.007812 15.910156 -14.820312 13.890625 -15.6875 C 11.867188 -16.5625 9.957031 -17.613281 8.15625 -18.84375 C 6.363281 -20.082031 4.90625 -21.613281 3.78125 -23.4375 C 2.664062 -25.269531 2.109375 -27.476562 2.109375 -30.0625 C 2.109375 -33.644531 3.425781 -36.628906 6.0625 -39.015625 C 8.695312 -41.398438 12.625 -42.59375 17.84375 -42.59375 C 19.476562 -42.59375 20.8125 -42.507812 21.84375 -42.34375 C 22.882812 -42.175781 24.019531 -42.09375 25.25 -42.09375 C 26.207031 -42.09375 27.0625 -42.175781 27.8125 -42.34375 C 28.570312 -42.507812 29.234375 -42.59375 29.796875 -42.59375 C 30.242188 -42.59375 30.625 -42.507812 30.9375 -42.34375 C 31.25 -42.175781 31.515625 -41.84375 31.734375 -41.34375 C 33.023438 -38.53125 34.050781 -36.113281 34.8125 -34.09375 C 35.570312 -32.070312 35.863281 -30.523438 35.6875 -29.453125 C 35.519531 -28.390625 34.597656 -27.859375 32.921875 -27.859375 C 31.960938 -27.859375 31.0625 -28.347656 30.21875 -29.328125 C 29.375 -30.316406 28.515625 -31.46875 27.640625 -32.78125 C 26.773438 -34.101562 25.753906 -35.253906 24.578125 -36.234375 C 23.398438 -37.222656 22 -37.71875 20.375 -37.71875 C 18.800781 -37.71875 17.59375 -37.296875 16.75 -36.453125 C 15.90625 -35.609375 15.484375 -34.484375 15.484375 -33.078125 C 15.484375 -31.796875 16.03125 -30.71875 17.125 -29.84375 C 18.226562 -28.976562 19.617188 -28.191406 21.296875 -27.484375 C 22.984375 -26.785156 24.796875 -26.039062 26.734375 -25.25 C 28.671875 -24.46875 30.476562 -23.515625 32.15625 -22.390625 C 33.84375 -21.265625 35.234375 -19.859375 36.328125 -18.171875 C 37.421875 -16.492188 37.96875 -14.363281 37.96875 -11.78125 C 37.96875 -9.09375 37.125 -6.832031 35.4375 -5 C 33.757812 -3.175781 31.613281 -1.800781 29 -0.875 C 26.394531 0.0390625 23.628906 0.5 20.703125 0.5 C 18.578125 0.5 16.769531 0.414062 15.28125 0.25 C 13.789062 0.0820312 11.976562 0 9.84375 0 C 8.445312 0 7.410156 0.0820312 6.734375 0.25 C 6.054688 0.414062 5.128906 0.5 3.953125 0.5 C 2.828125 0.5 2.164062 0.09375 1.96875 -0.71875 C 1.78125 -1.53125 1.78125 -2.609375 1.96875 -3.953125 C 2.164062 -5.304688 2.265625 -6.765625 2.265625 -8.328125 Z M 2.265625 -8.328125 "/></g></g></g></svg>